<svg width="248" height="33" viewBox="0 0 248 33" fill="none" xmlns="http://www.w3.org/2000/svg">
<path d="M5.32178 18.442V20.008H9.28178V23.014H5.32178V24.814H9.82178V28H1.32578V15.256H9.82178V18.442H5.32178ZM19.4457 28L17.1057 24.688L15.1617 28H10.6077L14.8017 21.43L10.4277 15.256H15.1617L17.4117 18.442L19.2837 15.256H23.8377L19.7157 21.7L24.1797 28H19.4457ZM35.4958 19.63C35.4958 20.434 35.3098 21.166 34.9378 21.826C34.5658 22.474 34.0138 22.99 33.2818 23.374C32.5618 23.758 31.6858 23.95 30.6538 23.95H29.0698V28H25.0738V15.256H30.6538C32.2138 15.256 33.4078 15.652 34.2358 16.444C35.0758 17.236 35.4958 18.298 35.4958 19.63ZM30.2038 20.8C31.0318 20.8 31.4458 20.41 31.4458 19.63C31.4458 18.85 31.0318 18.46 30.2038 18.46H29.0698V20.8H30.2038ZM40.7593 18.442V20.008H44.7193V23.014H40.7593V24.814H45.2593V28H36.7633V15.256H45.2593V18.442H40.7593ZM53.1732 28L50.7792 23.428H50.7612V28H46.7652V15.256H52.7052C53.7372 15.256 54.6192 15.442 55.3512 15.814C56.0832 16.174 56.6292 16.672 56.9892 17.308C57.3612 17.932 57.5472 18.64 57.5472 19.432C57.5472 20.284 57.3072 21.04 56.8272 21.7C56.3592 22.36 55.6812 22.834 54.7932 23.122L57.5652 28H53.1732ZM50.7612 20.764H52.3452C52.7292 20.764 53.0172 20.68 53.2092 20.512C53.4012 20.332 53.4972 20.056 53.4972 19.684C53.4972 19.348 53.3952 19.084 53.1912 18.892C52.9992 18.7 52.7172 18.604 52.3452 18.604H50.7612V20.764ZM62.8198 15.256V28H58.8238V15.256H62.8198ZM68.6206 18.442V20.008H72.5806V23.014H68.6206V24.814H73.1206V28H64.6246V15.256H73.1206V18.442H68.6206ZM86.8486 28H82.8526L78.6226 21.592V28H74.6266V15.256H78.6226L82.8526 21.772V15.256H86.8486V28ZM88.2939 21.61C88.2939 20.35 88.5459 19.228 89.0499 18.244C89.5659 17.26 90.2979 16.498 91.2459 15.958C92.1939 15.406 93.3099 15.13 94.5939 15.13C95.6979 15.13 96.6819 15.34 97.5459 15.76C98.4219 16.168 99.1299 16.75 99.6699 17.506C100.222 18.262 100.588 19.144 100.768 20.152H96.5559C96.3639 19.732 96.0879 19.408 95.7279 19.18C95.3799 18.94 94.9779 18.82 94.5219 18.82C93.8499 18.82 93.3159 19.072 92.9199 19.576C92.5359 20.08 92.3439 20.758 92.3439 21.61C92.3439 22.462 92.5359 23.14 92.9199 23.644C93.3159 24.148 93.8499 24.4 94.5219 24.4C94.9779 24.4 95.3799 24.286 95.7279 24.058C96.0879 23.818 96.3639 23.488 96.5559 23.068H100.768C100.588 24.076 100.222 24.958 99.6699 25.714C99.1299 26.47 98.4219 27.058 97.5459 27.478C96.6819 27.886 95.6979 28.09 94.5939 28.09C93.3099 28.09 92.1939 27.82 91.2459 27.28C90.2979 26.728 89.5659 25.96 89.0499 24.976C88.5459 23.992 88.2939 22.87 88.2939 21.61ZM106.203 18.442V20.008H110.163V23.014H106.203V24.814H110.703V28H102.207V15.256H110.703V18.442H106.203ZM123.439 26.074H119.191L118.561 28H114.367L119.029 15.256H123.637L128.281 28H124.069L123.439 26.074ZM122.467 23.068L121.315 19.522L120.163 23.068H122.467ZM134.175 28.126C132.651 28.126 131.391 27.772 130.395 27.064C129.411 26.344 128.877 25.294 128.793 23.914H133.041C133.101 24.646 133.425 25.012 134.013 25.012C134.229 25.012 134.409 24.964 134.553 24.868C134.709 24.76 134.787 24.598 134.787 24.382C134.787 24.082 134.625 23.842 134.301 23.662C133.977 23.47 133.473 23.254 132.789 23.014C131.973 22.726 131.295 22.444 130.755 22.168C130.227 21.892 129.771 21.49 129.387 20.962C129.003 20.434 128.817 19.756 128.829 18.928C128.829 18.1 129.039 17.398 129.459 16.822C129.891 16.234 130.473 15.79 131.205 15.49C131.949 15.19 132.783 15.04 133.707 15.04C135.267 15.04 136.503 15.4 137.415 16.12C138.339 16.84 138.825 17.854 138.873 19.162H134.571C134.559 18.802 134.469 18.544 134.301 18.388C134.133 18.232 133.929 18.154 133.689 18.154C133.521 18.154 133.383 18.214 133.275 18.334C133.167 18.442 133.113 18.598 133.113 18.802C133.113 19.09 133.269 19.33 133.581 19.522C133.905 19.702 134.415 19.924 135.111 20.188C135.915 20.488 136.575 20.776 137.091 21.052C137.619 21.328 138.075 21.712 138.459 22.204C138.843 22.696 139.035 23.314 139.035 24.058C139.035 24.838 138.843 25.54 138.459 26.164C138.075 26.776 137.517 27.256 136.785 27.604C136.053 27.952 135.183 28.126 134.175 28.126ZM144.435 15.256V28H140.439V15.256H144.435ZM154.412 26.074H150.164L149.534 28H145.34L150.002 15.256H154.61L159.254 28H155.042L154.412 26.074ZM153.44 23.068L152.288 19.522L151.136 23.068H153.44ZM172.22 15.256V18.424H167.216V20.188H170.816V23.194H167.216V28H163.22V15.256H172.22ZM177.57 18.442V20.008H181.53V23.014H177.57V24.814H182.07V28H173.574V15.256H182.07V18.442H177.57ZM188.562 28.126C187.038 28.126 185.778 27.772 184.782 27.064C183.798 26.344 183.264 25.294 183.18 23.914H187.428C187.488 24.646 187.812 25.012 188.4 25.012C188.616 25.012 188.796 24.964 188.94 24.868C189.096 24.76 189.174 24.598 189.174 24.382C189.174 24.082 189.012 23.842 188.688 23.662C188.364 23.47 187.86 23.254 187.176 23.014C186.36 22.726 185.682 22.444 185.142 22.168C184.614 21.892 184.158 21.49 183.774 20.962C183.39 20.434 183.204 19.756 183.216 18.928C183.216 18.1 183.426 17.398 183.846 16.822C184.278 16.234 184.86 15.79 185.592 15.49C186.336 15.19 187.17 15.04 188.094 15.04C189.654 15.04 190.89 15.4 191.802 16.12C192.726 16.84 193.212 17.854 193.26 19.162H188.958C188.946 18.802 188.856 18.544 188.688 18.388C188.52 18.232 188.316 18.154 188.076 18.154C187.908 18.154 187.77 18.214 187.662 18.334C187.554 18.442 187.5 18.598 187.5 18.802C187.5 19.09 187.656 19.33 187.968 19.522C188.292 19.702 188.802 19.924 189.498 20.188C190.302 20.488 190.962 20.776 191.478 21.052C192.006 21.328 192.462 21.712 192.846 22.204C193.23 22.696 193.422 23.314 193.422 24.058C193.422 24.838 193.23 25.54 192.846 26.164C192.462 26.776 191.904 27.256 191.172 27.604C190.44 27.952 189.57 28.126 188.562 28.126ZM204.834 15.256V18.424H201.45V28H197.454V18.424H194.106V15.256H204.834ZM209.914 15.256V28H205.918V15.256H209.914ZM224.552 15.256L220.268 28H215.102L210.818 15.256H215.066L217.694 24.022L220.304 15.256H224.552ZM233.619 26.074H229.371L228.741 28H224.547L229.209 15.256H233.817L238.461 28H234.249L233.619 26.074ZM232.647 23.068L231.495 19.522L230.343 23.068H232.647ZM243.365 24.976H247.217V28H239.369V15.256H243.365V24.976Z" fill="white"/>
<path d="M3.52069 12H2.58469L2.52869 11.364H1.78869L1.50469 12H1.11669L2.29669 9.46H3.24469L3.52069 12ZM1.92069 11.072H2.50069L2.40869 9.984L1.92069 11.072ZM4.93894 10.784C4.9416 10.7707 4.94427 10.7573 4.94694 10.744C4.9496 10.7307 4.95094 10.716 4.95094 10.7C4.95094 10.652 4.9416 10.608 4.92294 10.568C4.90694 10.5253 4.8736 10.504 4.82294 10.504C4.7776 10.504 4.73227 10.524 4.68694 10.564C4.6416 10.6013 4.61894 10.652 4.61894 10.716C4.61894 10.7587 4.6296 10.7933 4.65094 10.82C4.67494 10.844 4.7056 10.864 4.74294 10.88C4.78027 10.896 4.8216 10.9093 4.86694 10.92C4.91494 10.9307 4.9616 10.9413 5.00694 10.952C5.07094 10.968 5.13094 10.988 5.18694 11.012C5.2456 11.0333 5.2976 11.0627 5.34294 11.1C5.38827 11.1373 5.42427 11.184 5.45094 11.24C5.4776 11.2933 5.49094 11.36 5.49094 11.44C5.49094 11.552 5.46427 11.6467 5.41094 11.724C5.36027 11.7987 5.28827 11.86 5.19494 11.908C5.10427 11.9533 4.99627 11.9853 4.87094 12.004C4.74827 12.0227 4.61627 12.032 4.47494 12.032C4.25894 12.032 4.08027 12.016 3.93894 11.984C3.7976 11.952 3.69894 11.9213 3.64294 11.892L3.72694 11.492H4.26694C4.26427 11.5053 4.26294 11.5187 4.26294 11.532C4.26294 11.5427 4.26294 11.5547 4.26294 11.568C4.26294 11.6293 4.27627 11.6787 4.30294 11.716C4.33227 11.7507 4.3816 11.768 4.45094 11.768C4.52827 11.768 4.58294 11.7467 4.61494 11.704C4.6496 11.6587 4.66694 11.6173 4.66694 11.58C4.66694 11.5427 4.65227 11.5107 4.62294 11.484C4.59627 11.4547 4.5616 11.4307 4.51894 11.412C4.47627 11.3907 4.42827 11.3733 4.37494 11.36C4.32427 11.344 4.27494 11.3293 4.22694 11.316C4.19227 11.308 4.15227 11.2947 4.10694 11.276C4.06427 11.2573 4.02294 11.2307 3.98294 11.196C3.94294 11.1613 3.9096 11.1173 3.88294 11.064C3.85627 11.008 3.84294 10.9387 3.84294 10.856C3.84294 10.7387 3.87094 10.6413 3.92694 10.564C3.9856 10.484 4.06027 10.42 4.15094 10.372C4.24427 10.324 4.34827 10.2893 4.46294 10.268C4.58027 10.2467 4.6976 10.236 4.81494 10.236C4.9616 10.236 5.10027 10.2493 5.23094 10.276C5.3616 10.3027 5.46827 10.3373 5.55094 10.38L5.45894 10.784H4.93894ZM6.43216 12H5.62016L5.98416 10.28H6.80416L6.43216 12ZM6.90816 9.756C6.90816 9.81733 6.89482 9.87067 6.86816 9.916C6.84416 9.96133 6.81082 10 6.76816 10.032C6.72816 10.064 6.68149 10.088 6.62816 10.104C6.57482 10.12 6.52016 10.128 6.46416 10.128C6.35749 10.128 6.26816 10.1027 6.19616 10.052C6.12416 10.0013 6.08816 9.92133 6.08816 9.812C6.08816 9.75333 6.10016 9.70133 6.12416 9.656C6.14816 9.608 6.18016 9.56933 6.22016 9.54C6.26282 9.508 6.31082 9.484 6.36416 9.468C6.42016 9.452 6.47749 9.444 6.53616 9.444C6.64016 9.444 6.72816 9.46933 6.80016 9.52C6.87216 9.57067 6.90816 9.64933 6.90816 9.756ZM7.12003 10.428C7.25603 10.3613 7.3947 10.3133 7.53603 10.284C7.68003 10.252 7.84003 10.236 8.01603 10.236C8.1867 10.236 8.32803 10.2493 8.44003 10.276C8.55203 10.3027 8.64136 10.3413 8.70803 10.392C8.7747 10.4427 8.82136 10.5027 8.84803 10.572C8.8747 10.6413 8.88803 10.72 8.88803 10.808C8.88803 10.8587 8.88403 10.9133 8.87603 10.972C8.8707 11.0307 8.86403 11.08 8.85603 11.12L8.66803 12H8.02403L7.95203 11.744H7.92803C7.8427 11.8373 7.7427 11.9093 7.62803 11.96C7.51603 12.008 7.40403 12.032 7.29203 12.032C7.22803 12.032 7.16536 12.0227 7.10403 12.004C7.0427 11.9853 6.98803 11.9573 6.94003 11.92C6.89203 11.88 6.85336 11.8307 6.82403 11.772C6.7947 11.7107 6.78003 11.6373 6.78003 11.552C6.78003 11.4133 6.81736 11.304 6.89203 11.224C6.96936 11.1413 7.06936 11.08 7.19203 11.04C7.31736 10.9973 7.45736 10.9707 7.61203 10.96C7.76936 10.9493 7.9267 10.944 8.08403 10.944C8.08936 10.9173 8.09603 10.88 8.10403 10.832C8.11203 10.7813 8.11603 10.7373 8.11603 10.7C8.11603 10.652 8.1027 10.608 8.07603 10.568C8.05203 10.5253 8.00003 10.504 7.92003 10.504C7.8267 10.504 7.75736 10.532 7.71203 10.588C7.66936 10.6413 7.64136 10.7067 7.62803 10.784H7.04403L7.12003 10.428ZM8.04003 11.132H7.96803C7.8907 11.132 7.82403 11.1427 7.76803 11.164C7.7147 11.1827 7.6707 11.208 7.63603 11.24C7.60403 11.272 7.58003 11.308 7.56403 11.348C7.54803 11.388 7.54003 11.428 7.54003 11.468C7.54003 11.532 7.55603 11.58 7.58803 11.612C7.6227 11.644 7.6627 11.66 7.70803 11.66C7.76403 11.66 7.8187 11.64 7.87203 11.6C7.92803 11.56 7.9627 11.5067 7.97603 11.44L8.04003 11.132ZM10.1111 10.536C10.1671 10.4827 10.2297 10.4333 10.2991 10.388C10.3604 10.3507 10.4324 10.316 10.5151 10.284C10.5977 10.252 10.6897 10.236 10.7911 10.236C10.9297 10.236 11.0444 10.272 11.1351 10.344C11.2257 10.4133 11.2711 10.5093 11.2711 10.632C11.2711 10.6667 11.2671 10.7093 11.2591 10.76C11.2511 10.808 11.2417 10.8587 11.2311 10.912C11.2204 10.9653 11.2084 11.02 11.1951 11.076C11.1844 11.1293 11.1751 11.1773 11.1671 11.22L10.9991 12H10.1871L10.4071 10.956C10.4124 10.9213 10.4191 10.8867 10.4271 10.852C10.4351 10.8147 10.4391 10.7813 10.4391 10.752C10.4391 10.712 10.4284 10.68 10.4071 10.656C10.3884 10.6293 10.3591 10.616 10.3191 10.616C10.2711 10.616 10.2244 10.6333 10.1791 10.668C10.1364 10.7027 10.1031 10.732 10.0791 10.756L9.81506 12H8.99906L9.36306 10.28H10.0151L10.0871 10.536H10.1111ZM14.4044 11.784C14.3378 11.816 14.2684 11.848 14.1964 11.88C14.1271 11.9093 14.0524 11.936 13.9724 11.96C13.8924 11.9813 13.8044 11.9987 13.7084 12.012C13.6151 12.0253 13.5124 12.032 13.4004 12.032C13.0431 12.032 12.7671 11.952 12.5724 11.792C12.3804 11.632 12.2844 11.3653 12.2844 10.992C12.2844 10.776 12.3178 10.5733 12.3844 10.384C12.4511 10.192 12.5498 10.0253 12.6804 9.884C12.8111 9.74 12.9724 9.62667 13.1644 9.544C13.3564 9.46133 13.5764 9.42 13.8244 9.42C13.9418 9.42 14.0484 9.428 14.1444 9.444C14.2431 9.46 14.3311 9.48133 14.4084 9.508C14.4884 9.532 14.5591 9.55867 14.6204 9.588C14.6844 9.61733 14.7418 9.64533 14.7924 9.672L14.6484 10.416H13.9284C13.9311 10.3893 13.9338 10.3547 13.9364 10.312C13.9418 10.2693 13.9458 10.2267 13.9484 10.184C13.9511 10.1387 13.9538 10.0947 13.9564 10.052C13.9591 10.0093 13.9604 9.97333 13.9604 9.944C13.9604 9.92267 13.9591 9.89867 13.9564 9.872C13.9538 9.84267 13.9471 9.81467 13.9364 9.788C13.9258 9.76133 13.9084 9.74 13.8844 9.724C13.8631 9.70533 13.8338 9.696 13.7964 9.696C13.7271 9.696 13.6631 9.72533 13.6044 9.784C13.5484 9.84 13.4978 9.916 13.4524 10.012C13.4071 10.1053 13.3671 10.212 13.3324 10.332C13.2978 10.452 13.2684 10.5747 13.2444 10.7C13.2231 10.8227 13.2058 10.944 13.1924 11.064C13.1818 11.184 13.1764 11.2893 13.1764 11.38C13.1764 11.4067 13.1778 11.44 13.1804 11.48C13.1831 11.52 13.1911 11.5587 13.2044 11.596C13.2178 11.6333 13.2378 11.6653 13.2644 11.692C13.2938 11.7187 13.3324 11.732 13.3804 11.732C13.4631 11.732 13.5431 11.6813 13.6204 11.58C13.6978 11.476 13.7658 11.292 13.8244 11.028H14.5644L14.4044 11.784ZM15.9631 10.236C16.2805 10.236 16.5111 10.292 16.6551 10.404C16.8071 10.5213 16.8831 10.716 16.8831 10.988C16.8831 11.156 16.8551 11.308 16.7991 11.444C16.7431 11.5773 16.6645 11.688 16.5631 11.776C16.3605 11.9467 16.0671 12.032 15.6831 12.032C15.3551 12.032 15.1205 11.9693 14.9791 11.844C14.8271 11.7133 14.7511 11.5173 14.7511 11.256C14.7511 11.0827 14.7858 10.9253 14.8551 10.784C14.9271 10.6427 15.0298 10.5253 15.1631 10.432C15.3578 10.3013 15.6245 10.236 15.9631 10.236ZM15.6911 11.76C15.7578 11.76 15.8151 11.7227 15.8631 11.648C15.9138 11.5733 15.9538 11.4827 15.9831 11.376C16.0125 11.2667 16.0338 11.1547 16.0471 11.04C16.0631 10.9227 16.0711 10.8213 16.0711 10.736C16.0711 10.6613 16.0631 10.6053 16.0471 10.568C16.0338 10.528 16.0031 10.508 15.9551 10.508C15.8831 10.508 15.8205 10.5467 15.7671 10.624C15.7165 10.7013 15.6751 10.7933 15.6431 10.9C15.6111 11.0067 15.5871 11.116 15.5711 11.228C15.5578 11.34 15.5511 11.4307 15.5511 11.5C15.5511 11.6733 15.5978 11.76 15.6911 11.76ZM17.2919 10.428C17.4279 10.3613 17.5666 10.3133 17.7079 10.284C17.8519 10.252 18.0119 10.236 18.1879 10.236C18.3586 10.236 18.4999 10.2493 18.6119 10.276C18.7239 10.3027 18.8132 10.3413 18.8799 10.392C18.9466 10.4427 18.9932 10.5027 19.0199 10.572C19.0466 10.6413 19.0599 10.72 19.0599 10.808C19.0599 10.8587 19.0559 10.9133 19.0479 10.972C19.0426 11.0307 19.0359 11.08 19.0279 11.12L18.8399 12H18.1959L18.1239 11.744H18.0999C18.0146 11.8373 17.9146 11.9093 17.7999 11.96C17.6879 12.008 17.5759 12.032 17.4639 12.032C17.3999 12.032 17.3372 12.0227 17.2759 12.004C17.2146 11.9853 17.1599 11.9573 17.1119 11.92C17.0639 11.88 17.0252 11.8307 16.9959 11.772C16.9666 11.7107 16.9519 11.6373 16.9519 11.552C16.9519 11.4133 16.9892 11.304 17.0639 11.224C17.1412 11.1413 17.2412 11.08 17.3639 11.04C17.4892 10.9973 17.6292 10.9707 17.7839 10.96C17.9412 10.9493 18.0986 10.944 18.2559 10.944C18.2612 10.9173 18.2679 10.88 18.2759 10.832C18.2839 10.7813 18.2879 10.7373 18.2879 10.7C18.2879 10.652 18.2746 10.608 18.2479 10.568C18.2239 10.5253 18.1719 10.504 18.0919 10.504C17.9986 10.504 17.9292 10.532 17.8839 10.588C17.8412 10.6413 17.8132 10.7067 17.7999 10.784H17.2159L17.2919 10.428ZM18.2119 11.132H18.1399C18.0626 11.132 17.9959 11.1427 17.9399 11.164C17.8866 11.1827 17.8426 11.208 17.8079 11.24C17.7759 11.272 17.7519 11.308 17.7359 11.348C17.7199 11.388 17.7119 11.428 17.7119 11.468C17.7119 11.532 17.7279 11.58 17.7599 11.612C17.7946 11.644 17.8346 11.66 17.8799 11.66C17.9359 11.66 17.9906 11.64 18.0439 11.6C18.0999 11.56 18.1346 11.5067 18.1479 11.44L18.2119 11.132ZM19.9869 12H19.1709L19.7389 9.312H20.5589L19.9869 12ZM21.1548 12H20.3428L20.7068 10.28H21.5268L21.1548 12ZM21.6308 9.756C21.6308 9.81733 21.6175 9.87067 21.5908 9.916C21.5668 9.96133 21.5335 10 21.4908 10.032C21.4508 10.064 21.4041 10.088 21.3508 10.104C21.2975 10.12 21.2428 10.128 21.1868 10.128C21.0801 10.128 20.9908 10.1027 20.9188 10.052C20.8468 10.0013 20.8108 9.92133 20.8108 9.812C20.8108 9.75333 20.8228 9.70133 20.8468 9.656C20.8708 9.608 20.9028 9.56933 20.9428 9.54C20.9855 9.508 21.0335 9.484 21.0868 9.468C21.1428 9.452 21.2001 9.444 21.2588 9.444C21.3628 9.444 21.4508 9.46933 21.5228 9.52C21.5948 9.57067 21.6308 9.64933 21.6308 9.756ZM21.7387 10.28C21.8374 10.2587 21.924 10.2347 21.9987 10.208C22.0734 10.1813 22.1414 10.148 22.2027 10.108C22.2667 10.068 22.3267 10.0187 22.3827 9.96C22.4414 9.90133 22.504 9.82933 22.5707 9.744H22.9827L22.8667 10.28H23.1787L23.1267 10.548H22.8107L22.6467 11.328C22.6334 11.3893 22.6227 11.444 22.6147 11.492C22.6067 11.54 22.6027 11.5773 22.6027 11.604C22.6027 11.6573 22.6214 11.6907 22.6587 11.704C22.6987 11.7173 22.772 11.724 22.8787 11.724L22.8187 12C22.8 12.0053 22.7707 12.0093 22.7307 12.012C22.6934 12.0147 22.6507 12.0173 22.6027 12.02C22.5574 12.0253 22.5094 12.028 22.4587 12.028C22.4107 12.0307 22.368 12.032 22.3307 12.032C22.264 12.032 22.1987 12.0267 22.1347 12.016C22.0707 12.008 22.0134 11.9907 21.9627 11.964C21.912 11.9347 21.8707 11.8933 21.8387 11.84C21.8094 11.7867 21.7947 11.7147 21.7947 11.624C21.7947 11.592 21.796 11.552 21.7987 11.504C21.804 11.456 21.8134 11.4027 21.8267 11.344L21.9947 10.548H21.6827L21.7387 10.28ZM23.8931 12H23.0811L23.4451 10.28H24.2651L23.8931 12ZM24.3691 9.756C24.3691 9.81733 24.3558 9.87067 24.3291 9.916C24.3051 9.96133 24.2718 10 24.2291 10.032C24.1891 10.064 24.1424 10.088 24.0891 10.104C24.0358 10.12 23.9811 10.128 23.9251 10.128C23.8184 10.128 23.7291 10.1027 23.6571 10.052C23.5851 10.0013 23.5491 9.92133 23.5491 9.812C23.5491 9.75333 23.5611 9.70133 23.5851 9.656C23.6091 9.608 23.6411 9.56933 23.6811 9.54C23.7238 9.508 23.7718 9.484 23.8251 9.468C23.8811 9.452 23.9384 9.444 23.9971 9.444C24.1011 9.444 24.1891 9.46933 24.2611 9.52C24.3331 9.57067 24.3691 9.64933 24.3691 9.756ZM25.553 10.236C25.8703 10.236 26.101 10.292 26.245 10.404C26.397 10.5213 26.473 10.716 26.473 10.988C26.473 11.156 26.445 11.308 26.389 11.444C26.333 11.5773 26.2543 11.688 26.153 11.776C25.9503 11.9467 25.657 12.032 25.273 12.032C24.945 12.032 24.7103 11.9693 24.569 11.844C24.417 11.7133 24.341 11.5173 24.341 11.256C24.341 11.0827 24.3756 10.9253 24.445 10.784C24.517 10.6427 24.6196 10.5253 24.753 10.432C24.9476 10.3013 25.2143 10.236 25.553 10.236ZM25.281 11.76C25.3476 11.76 25.405 11.7227 25.453 11.648C25.5036 11.5733 25.5436 11.4827 25.573 11.376C25.6023 11.2667 25.6236 11.1547 25.637 11.04C25.653 10.9227 25.661 10.8213 25.661 10.736C25.661 10.6613 25.653 10.6053 25.637 10.568C25.6236 10.528 25.593 10.508 25.545 10.508C25.473 10.508 25.4103 10.5467 25.357 10.624C25.3063 10.7013 25.265 10.7933 25.233 10.9C25.201 11.0067 25.177 11.116 25.161 11.228C25.1476 11.34 25.141 11.4307 25.141 11.5C25.141 11.6733 25.1876 11.76 25.281 11.76ZM27.6658 10.536C27.7218 10.4827 27.7844 10.4333 27.8538 10.388C27.9151 10.3507 27.9871 10.316 28.0698 10.284C28.1524 10.252 28.2444 10.236 28.3458 10.236C28.4844 10.236 28.5991 10.272 28.6898 10.344C28.7804 10.4133 28.8258 10.5093 28.8258 10.632C28.8258 10.6667 28.8218 10.7093 28.8138 10.76C28.8058 10.808 28.7964 10.8587 28.7858 10.912C28.7751 10.9653 28.7631 11.02 28.7498 11.076C28.7391 11.1293 28.7298 11.1773 28.7218 11.22L28.5538 12H27.7418L27.9618 10.956C27.9671 10.9213 27.9738 10.8867 27.9818 10.852C27.9898 10.8147 27.9938 10.7813 27.9938 10.752C27.9938 10.712 27.9831 10.68 27.9618 10.656C27.9431 10.6293 27.9138 10.616 27.8738 10.616C27.8258 10.616 27.7791 10.6333 27.7338 10.668C27.6911 10.7027 27.6578 10.732 27.6338 10.756L27.3698 12H26.5537L26.9178 10.28H27.5698L27.6418 10.536H27.6658ZM30.9631 10.236C31.2805 10.236 31.5111 10.292 31.6551 10.404C31.8071 10.5213 31.8831 10.716 31.8831 10.988C31.8831 11.156 31.8551 11.308 31.7991 11.444C31.7431 11.5773 31.6645 11.688 31.5631 11.776C31.3605 11.9467 31.0671 12.032 30.6831 12.032C30.3551 12.032 30.1205 11.9693 29.9791 11.844C29.8271 11.7133 29.7511 11.5173 29.7511 11.256C29.7511 11.0827 29.7858 10.9253 29.8551 10.784C29.9271 10.6427 30.0298 10.5253 30.1631 10.432C30.3578 10.3013 30.6245 10.236 30.9631 10.236ZM30.6911 11.76C30.7578 11.76 30.8151 11.7227 30.8631 11.648C30.9138 11.5733 30.9538 11.4827 30.9831 11.376C31.0125 11.2667 31.0338 11.1547 31.0471 11.04C31.0631 10.9227 31.0711 10.8213 31.0711 10.736C31.0711 10.6613 31.0631 10.6053 31.0471 10.568C31.0338 10.528 31.0031 10.508 30.9551 10.508C30.8831 10.508 30.8205 10.5467 30.7671 10.624C30.7165 10.7013 30.6751 10.7933 30.6431 10.9C30.6111 11.0067 30.5871 11.116 30.5711 11.228C30.5578 11.34 30.5511 11.4307 30.5511 11.5C30.5511 11.6733 30.5978 11.76 30.6911 11.76ZM32.1255 10.28H32.4335L32.4695 10.116C32.5042 9.956 32.5548 9.82133 32.6215 9.712C32.6882 9.6 32.7668 9.50933 32.8575 9.44C32.9508 9.37067 33.0562 9.32133 33.1735 9.292C33.2908 9.26 33.4162 9.244 33.5495 9.244C33.6322 9.244 33.7202 9.24933 33.8135 9.26C33.9068 9.27067 34.0042 9.288 34.1055 9.312L34.0415 9.632C33.9828 9.624 33.9202 9.61867 33.8535 9.616C33.7868 9.61067 33.7335 9.608 33.6935 9.608C33.6402 9.608 33.5935 9.612 33.5535 9.62C33.5162 9.628 33.4828 9.644 33.4535 9.668C33.4242 9.68933 33.3988 9.72 33.3775 9.76C33.3562 9.8 33.3388 9.85333 33.3255 9.92L33.2495 10.28H33.6695L33.6175 10.548H33.1935L32.8855 12H32.0695L32.3775 10.548H32.0655L32.1255 10.28ZM36.5883 9.764H35.9443L35.4683 12H34.6043L35.0803 9.764H34.4443L34.5163 9.46H36.6563L36.5883 9.764ZM36.4013 10.428C36.5373 10.3613 36.6759 10.3133 36.8173 10.284C36.9613 10.252 37.1213 10.236 37.2973 10.236C37.4679 10.236 37.6093 10.2493 37.7213 10.276C37.8333 10.3027 37.9226 10.3413 37.9893 10.392C38.0559 10.4427 38.1026 10.5027 38.1293 10.572C38.1559 10.6413 38.1693 10.72 38.1693 10.808C38.1693 10.8587 38.1653 10.9133 38.1573 10.972C38.1519 11.0307 38.1453 11.08 38.1373 11.12L37.9493 12H37.3053L37.2333 11.744H37.2093C37.1239 11.8373 37.0239 11.9093 36.9093 11.96C36.7973 12.008 36.6853 12.032 36.5733 12.032C36.5093 12.032 36.4466 12.0227 36.3853 12.004C36.3239 11.9853 36.2693 11.9573 36.2213 11.92C36.1733 11.88 36.1346 11.8307 36.1053 11.772C36.0759 11.7107 36.0613 11.6373 36.0613 11.552C36.0613 11.4133 36.0986 11.304 36.1733 11.224C36.2506 11.1413 36.3506 11.08 36.4733 11.04C36.5986 10.9973 36.7386 10.9707 36.8933 10.96C37.0506 10.9493 37.2079 10.944 37.3653 10.944C37.3706 10.9173 37.3773 10.88 37.3853 10.832C37.3933 10.7813 37.3973 10.7373 37.3973 10.7C37.3973 10.652 37.3839 10.608 37.3573 10.568C37.3333 10.5253 37.2813 10.504 37.2013 10.504C37.1079 10.504 37.0386 10.532 36.9933 10.588C36.9506 10.6413 36.9226 10.7067 36.9093 10.784H36.3253L36.4013 10.428ZM37.3213 11.132H37.2493C37.1719 11.132 37.1053 11.1427 37.0493 11.164C36.9959 11.1827 36.9519 11.208 36.9173 11.24C36.8853 11.272 36.8613 11.308 36.8453 11.348C36.8293 11.388 36.8213 11.428 36.8213 11.468C36.8213 11.532 36.8373 11.58 36.8693 11.612C36.9039 11.644 36.9439 11.66 36.9893 11.66C37.0453 11.66 37.0999 11.64 37.1533 11.6C37.2093 11.56 37.2439 11.5067 37.2573 11.44L37.3213 11.132ZM39.0963 12H38.2803L38.8483 9.312H39.6683L39.0963 12ZM40.2682 12H39.4522L40.0202 9.312H40.8402L40.2682 12ZM40.9521 10.428C41.0881 10.3613 41.2267 10.3133 41.3681 10.284C41.5121 10.252 41.6721 10.236 41.8481 10.236C42.0187 10.236 42.1601 10.2493 42.2721 10.276C42.3841 10.3027 42.4734 10.3413 42.5401 10.392C42.6067 10.4427 42.6534 10.5027 42.6801 10.572C42.7067 10.6413 42.7201 10.72 42.7201 10.808C42.7201 10.8587 42.7161 10.9133 42.7081 10.972C42.7027 11.0307 42.6961 11.08 42.6881 11.12L42.5001 12H41.8561L41.7841 11.744H41.7601C41.6747 11.8373 41.5747 11.9093 41.4601 11.96C41.3481 12.008 41.2361 12.032 41.1241 12.032C41.0601 12.032 40.9974 12.0227 40.9361 12.004C40.8747 11.9853 40.8201 11.9573 40.7721 11.92C40.7241 11.88 40.6854 11.8307 40.6561 11.772C40.6267 11.7107 40.6121 11.6373 40.6121 11.552C40.6121 11.4133 40.6494 11.304 40.7241 11.224C40.8014 11.1413 40.9014 11.08 41.0241 11.04C41.1494 10.9973 41.2894 10.9707 41.4441 10.96C41.6014 10.9493 41.7587 10.944 41.9161 10.944C41.9214 10.9173 41.9281 10.88 41.9361 10.832C41.9441 10.7813 41.9481 10.7373 41.9481 10.7C41.9481 10.652 41.9347 10.608 41.9081 10.568C41.8841 10.5253 41.8321 10.504 41.7521 10.504C41.6587 10.504 41.5894 10.532 41.5441 10.588C41.5014 10.6413 41.4734 10.7067 41.4601 10.784H40.8761L40.9521 10.428ZM41.8721 11.132H41.8001C41.7227 11.132 41.6561 11.1427 41.6001 11.164C41.5467 11.1827 41.5027 11.208 41.4681 11.24C41.4361 11.272 41.4121 11.308 41.3961 11.348C41.3801 11.388 41.3721 11.428 41.3721 11.468C41.3721 11.532 41.3881 11.58 41.4201 11.612C41.4547 11.644 41.4947 11.66 41.5401 11.66C41.5961 11.66 41.6507 11.64 41.7041 11.6C41.7601 11.56 41.7947 11.5067 41.8081 11.44L41.8721 11.132ZM43.9591 10.536H43.9871C44.0378 10.4853 44.0964 10.4387 44.1631 10.396C44.2191 10.3587 44.2858 10.3253 44.3631 10.296C44.4404 10.2667 44.5271 10.252 44.6231 10.252C44.7618 10.252 44.8764 10.288 44.9671 10.36C45.0578 10.4293 45.1031 10.5253 45.1031 10.648C45.1031 10.6853 45.0991 10.728 45.0911 10.776C45.0831 10.8213 45.0738 10.8707 45.0631 10.924C45.0524 10.9747 45.0404 11.0267 45.0271 11.08C45.0164 11.1307 45.0071 11.1773 44.9991 11.22L44.8311 12H44.0191L44.2391 10.956C44.2444 10.9213 44.2511 10.8867 44.2591 10.852C44.2671 10.8147 44.2711 10.7813 44.2711 10.752C44.2711 10.712 44.2604 10.68 44.2391 10.656C44.2204 10.6293 44.1911 10.616 44.1511 10.616C44.1031 10.616 44.0564 10.6333 44.0111 10.668C43.9684 10.7027 43.9351 10.7333 43.9111 10.76L43.6471 12H42.8311L43.3991 9.312H44.2191L43.9591 10.536ZM45.5028 10.428C45.6388 10.3613 45.7775 10.3133 45.9188 10.284C46.0628 10.252 46.2228 10.236 46.3988 10.236C46.5695 10.236 46.7108 10.2493 46.8228 10.276C46.9348 10.3027 47.0242 10.3413 47.0908 10.392C47.1575 10.4427 47.2042 10.5027 47.2308 10.572C47.2575 10.6413 47.2708 10.72 47.2708 10.808C47.2708 10.8587 47.2668 10.9133 47.2588 10.972C47.2535 11.0307 47.2468 11.08 47.2388 11.12L47.0508 12H46.4068L46.3348 11.744H46.3108C46.2255 11.8373 46.1255 11.9093 46.0108 11.96C45.8988 12.008 45.7868 12.032 45.6748 12.032C45.6108 12.032 45.5482 12.0227 45.4868 12.004C45.4255 11.9853 45.3708 11.9573 45.3228 11.92C45.2748 11.88 45.2362 11.8307 45.2068 11.772C45.1775 11.7107 45.1628 11.6373 45.1628 11.552C45.1628 11.4133 45.2002 11.304 45.2748 11.224C45.3522 11.1413 45.4522 11.08 45.5748 11.04C45.7002 10.9973 45.8402 10.9707 45.9948 10.96C46.1522 10.9493 46.3095 10.944 46.4668 10.944C46.4722 10.9173 46.4788 10.88 46.4868 10.832C46.4948 10.7813 46.4988 10.7373 46.4988 10.7C46.4988 10.652 46.4855 10.608 46.4588 10.568C46.4348 10.5253 46.3828 10.504 46.3028 10.504C46.2095 10.504 46.1402 10.532 46.0948 10.588C46.0522 10.6413 46.0242 10.7067 46.0108 10.784H45.4268L45.5028 10.428ZM46.4228 11.132H46.3508C46.2735 11.132 46.2068 11.1427 46.1508 11.164C46.0975 11.1827 46.0535 11.208 46.0188 11.24C45.9868 11.272 45.9628 11.308 45.9468 11.348C45.9308 11.388 45.9228 11.428 45.9228 11.468C45.9228 11.532 45.9388 11.58 45.9708 11.612C46.0055 11.644 46.0455 11.66 46.0908 11.66C46.1468 11.66 46.2015 11.64 46.2548 11.6C46.3108 11.56 46.3455 11.5067 46.3588 11.44L46.4228 11.132ZM48.6499 10.784C48.6525 10.7707 48.6552 10.7573 48.6579 10.744C48.6605 10.7307 48.6619 10.716 48.6619 10.7C48.6619 10.652 48.6525 10.608 48.6339 10.568C48.6179 10.5253 48.5845 10.504 48.5339 10.504C48.4885 10.504 48.4432 10.524 48.3979 10.564C48.3525 10.6013 48.3299 10.652 48.3299 10.716C48.3299 10.7587 48.3405 10.7933 48.3619 10.82C48.3859 10.844 48.4165 10.864 48.4539 10.88C48.4912 10.896 48.5325 10.9093 48.5779 10.92C48.6259 10.9307 48.6725 10.9413 48.7179 10.952C48.7819 10.968 48.8419 10.988 48.8979 11.012C48.9565 11.0333 49.0085 11.0627 49.0539 11.1C49.0992 11.1373 49.1352 11.184 49.1619 11.24C49.1885 11.2933 49.2019 11.36 49.2019 11.44C49.2019 11.552 49.1752 11.6467 49.1219 11.724C49.0712 11.7987 48.9992 11.86 48.9059 11.908C48.8152 11.9533 48.7072 11.9853 48.5819 12.004C48.4592 12.0227 48.3272 12.032 48.1859 12.032C47.9699 12.032 47.7912 12.016 47.6499 11.984C47.5085 11.952 47.4099 11.9213 47.3539 11.892L47.4379 11.492H47.9779C47.9752 11.5053 47.9739 11.5187 47.9739 11.532C47.9739 11.5427 47.9739 11.5547 47.9739 11.568C47.9739 11.6293 47.9872 11.6787 48.0139 11.716C48.0432 11.7507 48.0925 11.768 48.1619 11.768C48.2392 11.768 48.2939 11.7467 48.3259 11.704C48.3605 11.6587 48.3779 11.6173 48.3779 11.58C48.3779 11.5427 48.3632 11.5107 48.3339 11.484C48.3072 11.4547 48.2725 11.4307 48.2299 11.412C48.1872 11.3907 48.1392 11.3733 48.0859 11.36C48.0352 11.344 47.9859 11.3293 47.9379 11.316C47.9032 11.308 47.8632 11.2947 47.8179 11.276C47.7752 11.2573 47.7339 11.2307 47.6939 11.196C47.6539 11.1613 47.6205 11.1173 47.5939 11.064C47.5672 11.008 47.5539 10.9387 47.5539 10.856C47.5539 10.7387 47.5819 10.6413 47.6379 10.564C47.6965 10.484 47.7712 10.42 47.8619 10.372C47.9552 10.324 48.0592 10.2893 48.1739 10.268C48.2912 10.2467 48.4085 10.236 48.5259 10.236C48.6725 10.236 48.8112 10.2493 48.9419 10.276C49.0725 10.3027 49.1792 10.3373 49.2619 10.38L49.1699 10.784H48.6499ZM50.5991 10.784C50.6018 10.7707 50.6044 10.7573 50.6071 10.744C50.6098 10.7307 50.6111 10.716 50.6111 10.7C50.6111 10.652 50.6018 10.608 50.5831 10.568C50.5671 10.5253 50.5338 10.504 50.4831 10.504C50.4378 10.504 50.3924 10.524 50.3471 10.564C50.3018 10.6013 50.2791 10.652 50.2791 10.716C50.2791 10.7587 50.2898 10.7933 50.3111 10.82C50.3351 10.844 50.3658 10.864 50.4031 10.88C50.4404 10.896 50.4818 10.9093 50.5271 10.92C50.5751 10.9307 50.6218 10.9413 50.6671 10.952C50.7311 10.968 50.7911 10.988 50.8471 11.012C50.9058 11.0333 50.9578 11.0627 51.0031 11.1C51.0484 11.1373 51.0844 11.184 51.1111 11.24C51.1378 11.2933 51.1511 11.36 51.1511 11.44C51.1511 11.552 51.1244 11.6467 51.0711 11.724C51.0204 11.7987 50.9484 11.86 50.8551 11.908C50.7644 11.9533 50.6564 11.9853 50.5311 12.004C50.4084 12.0227 50.2764 12.032 50.1351 12.032C49.9191 12.032 49.7404 12.016 49.5991 11.984C49.4578 11.952 49.3591 11.9213 49.3031 11.892L49.3871 11.492H49.9271C49.9244 11.5053 49.9231 11.5187 49.9231 11.532C49.9231 11.5427 49.9231 11.5547 49.9231 11.568C49.9231 11.6293 49.9364 11.6787 49.9631 11.716C49.9924 11.7507 50.0418 11.768 50.1111 11.768C50.1884 11.768 50.2431 11.7467 50.2751 11.704C50.3098 11.6587 50.3271 11.6173 50.3271 11.58C50.3271 11.5427 50.3124 11.5107 50.2831 11.484C50.2564 11.4547 50.2218 11.4307 50.1791 11.412C50.1364 11.3907 50.0884 11.3733 50.0351 11.36C49.9844 11.344 49.9351 11.3293 49.8871 11.316C49.8524 11.308 49.8124 11.2947 49.7671 11.276C49.7244 11.2573 49.6831 11.2307 49.6431 11.196C49.6031 11.1613 49.5698 11.1173 49.5431 11.064C49.5164 11.008 49.5031 10.9387 49.5031 10.856C49.5031 10.7387 49.5311 10.6413 49.5871 10.564C49.6458 10.484 49.7204 10.42 49.8111 10.372C49.9044 10.324 50.0084 10.2893 50.1231 10.268C50.2404 10.2467 50.3578 10.236 50.4751 10.236C50.6218 10.236 50.7604 10.2493 50.8911 10.276C51.0218 10.3027 51.1284 10.3373 51.2111 10.38L51.1191 10.784H50.5991ZM52.1767 11.196C52.166 11.2547 52.158 11.3107 52.1527 11.364C52.15 11.4173 52.1487 11.4653 52.1487 11.508C52.1487 11.532 52.15 11.5587 52.1527 11.588C52.1554 11.6173 52.1607 11.6453 52.1687 11.672C52.1794 11.696 52.1927 11.7173 52.2087 11.736C52.2274 11.752 52.2527 11.76 52.2847 11.76C52.3087 11.76 52.3354 11.752 52.3647 11.736C52.3967 11.72 52.4274 11.6973 52.4567 11.668C52.4887 11.6387 52.518 11.6027 52.5447 11.56C52.574 11.5173 52.5967 11.4693 52.6127 11.416H53.2687L53.1647 11.844C53.1114 11.8787 53.05 11.908 52.9807 11.932C52.9114 11.956 52.838 11.976 52.7607 11.992C52.6834 12.0053 52.6047 12.0147 52.5247 12.02C52.4447 12.028 52.3687 12.032 52.2967 12.032C52.1634 12.032 52.0394 12.02 51.9247 11.996C51.81 11.972 51.71 11.9307 51.6247 11.872C51.5394 11.8133 51.4714 11.736 51.4207 11.64C51.3727 11.5413 51.3487 11.42 51.3487 11.276C51.3487 11.1453 51.3687 11.0173 51.4087 10.892C51.4514 10.7667 51.5207 10.656 51.6167 10.56C51.7154 10.4613 51.846 10.3827 52.0087 10.324C52.174 10.2653 52.3794 10.236 52.6247 10.236C52.8914 10.236 53.0914 10.2773 53.2247 10.36C53.3607 10.4427 53.4287 10.572 53.4287 10.748C53.4287 10.82 53.418 10.8987 53.3967 10.984C53.3754 11.0667 53.3434 11.1373 53.3007 11.196H52.1767ZM52.7087 10.72C52.7087 10.6373 52.6954 10.5813 52.6687 10.552C52.642 10.5227 52.61 10.508 52.5727 10.508C52.53 10.508 52.49 10.5227 52.4527 10.552C52.418 10.5787 52.386 10.616 52.3567 10.664C52.3274 10.7093 52.3007 10.7627 52.2767 10.824C52.2527 10.8827 52.2327 10.9453 52.2167 11.012H52.6727C52.678 10.98 52.6834 10.9467 52.6887 10.912C52.694 10.8827 52.698 10.8507 52.7007 10.816C52.706 10.7813 52.7087 10.7493 52.7087 10.72ZM54.3642 11.196C54.3535 11.2547 54.3455 11.3107 54.3402 11.364C54.3375 11.4173 54.3362 11.4653 54.3362 11.508C54.3362 11.532 54.3375 11.5587 54.3402 11.588C54.3429 11.6173 54.3482 11.6453 54.3562 11.672C54.3669 11.696 54.3802 11.7173 54.3962 11.736C54.4149 11.752 54.4402 11.76 54.4722 11.76C54.4962 11.76 54.5229 11.752 54.5522 11.736C54.5842 11.72 54.6149 11.6973 54.6442 11.668C54.6762 11.6387 54.7055 11.6027 54.7322 11.56C54.7615 11.5173 54.7842 11.4693 54.8002 11.416H55.4562L55.3522 11.844C55.2989 11.8787 55.2375 11.908 55.1682 11.932C55.0989 11.956 55.0255 11.976 54.9482 11.992C54.8709 12.0053 54.7922 12.0147 54.7122 12.02C54.6322 12.028 54.5562 12.032 54.4842 12.032C54.3509 12.032 54.2269 12.02 54.1122 11.996C53.9975 11.972 53.8975 11.9307 53.8122 11.872C53.7269 11.8133 53.6589 11.736 53.6082 11.64C53.5602 11.5413 53.5362 11.42 53.5362 11.276C53.5362 11.1453 53.5562 11.0173 53.5962 10.892C53.6389 10.7667 53.7082 10.656 53.8042 10.56C53.9029 10.4613 54.0335 10.3827 54.1962 10.324C54.3615 10.2653 54.5669 10.236 54.8122 10.236C55.0789 10.236 55.2789 10.2773 55.4122 10.36C55.5482 10.4427 55.6162 10.572 55.6162 10.748C55.6162 10.82 55.6055 10.8987 55.5842 10.984C55.5629 11.0667 55.5309 11.1373 55.4882 11.196H54.3642ZM54.8962 10.72C54.8962 10.6373 54.8829 10.5813 54.8562 10.552C54.8295 10.5227 54.7975 10.508 54.7602 10.508C54.7175 10.508 54.6775 10.5227 54.6402 10.552C54.6055 10.5787 54.5735 10.616 54.5442 10.664C54.5149 10.7093 54.4882 10.7627 54.4642 10.824C54.4402 10.8827 54.4202 10.9453 54.4042 11.012H54.8602C54.8655 10.98 54.8709 10.9467 54.8762 10.912C54.8815 10.8827 54.8855 10.8507 54.8882 10.816C54.8935 10.7813 54.8962 10.7493 54.8962 10.72ZM56.8994 9.46H58.5834L58.5194 9.764H57.7034L57.5354 10.536H58.2194L58.1554 10.836H57.4714L57.2874 11.692H58.1034L58.0434 12H56.3594L56.8994 9.46ZM59.9276 10.196C59.9356 10.156 59.9396 10.1013 59.9396 10.032C59.9396 9.992 59.9369 9.95333 59.9316 9.916C59.9262 9.876 59.9169 9.84133 59.9036 9.812C59.8902 9.78 59.8702 9.756 59.8436 9.74C59.8169 9.72133 59.7822 9.712 59.7396 9.712C59.6916 9.712 59.6476 9.72267 59.6076 9.744C59.5676 9.76533 59.5316 9.79333 59.4996 9.828C59.4702 9.86 59.4462 9.89867 59.4276 9.944C59.4116 9.98667 59.4036 10.032 59.4036 10.08C59.4036 10.1493 59.4209 10.2027 59.4556 10.24C59.4929 10.2773 59.5409 10.308 59.5996 10.332C59.6582 10.356 59.7249 10.376 59.7996 10.392C59.8742 10.408 59.9516 10.4267 60.0316 10.448C60.0982 10.4667 60.1649 10.4907 60.2316 10.52C60.2982 10.5493 60.3569 10.5893 60.4076 10.64C60.4609 10.688 60.5036 10.752 60.5356 10.832C60.5676 10.9093 60.5836 11.0067 60.5836 11.124C60.5836 11.292 60.5502 11.4333 60.4836 11.548C60.4169 11.6627 60.3249 11.756 60.2076 11.828C60.0902 11.9 59.9502 11.952 59.7876 11.984C59.6276 12.016 59.4529 12.032 59.2636 12.032C59.0716 12.032 58.9142 12.02 58.7916 11.996C58.6716 11.9693 58.5769 11.9413 58.5076 11.912C58.4249 11.8773 58.3636 11.8373 58.3236 11.792L58.4596 11.244H59.1636C59.1609 11.268 59.1582 11.3013 59.1556 11.344C59.1529 11.384 59.1516 11.416 59.1516 11.44C59.1516 11.472 59.1556 11.5053 59.1636 11.54C59.1716 11.5747 59.1836 11.6067 59.1996 11.636C59.2182 11.6653 59.2436 11.6893 59.2756 11.708C59.3076 11.7267 59.3476 11.736 59.3956 11.736C59.4489 11.736 59.4956 11.724 59.5356 11.7C59.5782 11.676 59.6129 11.6467 59.6396 11.612C59.6689 11.5747 59.6902 11.5347 59.7036 11.492C59.7196 11.4467 59.7276 11.4027 59.7276 11.36C59.7276 11.3013 59.7129 11.252 59.6836 11.212C59.6569 11.172 59.6196 11.1387 59.5716 11.112C59.5236 11.0827 59.4676 11.0587 59.4036 11.04C59.3422 11.0187 59.2782 10.9973 59.2116 10.976C59.1476 10.9573 59.0796 10.9347 59.0076 10.908C58.9382 10.8813 58.8742 10.844 58.8156 10.796C58.7569 10.748 58.7076 10.688 58.6676 10.616C58.6302 10.5413 58.6116 10.4467 58.6116 10.332C58.6116 10.1613 58.6542 10.0187 58.7396 9.904C58.8276 9.78667 58.9369 9.692 59.0676 9.62C59.2009 9.548 59.3462 9.49733 59.5036 9.468C59.6609 9.436 59.8102 9.42 59.9516 9.42C60.1382 9.42 60.2982 9.44267 60.4316 9.488C60.5676 9.53067 60.6702 9.58133 60.7396 9.64L60.5916 10.196H59.9276ZM63.0962 9.764H62.4522L61.9762 12H61.1122L61.5882 9.764H60.9522L61.0242 9.46H63.1642L63.0962 9.764ZM63.4995 11.648C63.4995 11.7093 63.4862 11.764 63.4595 11.812C63.4355 11.86 63.4022 11.9 63.3595 11.932C63.3195 11.964 63.2728 11.988 63.2195 12.004C63.1662 12.0227 63.1102 12.032 63.0515 12.032C62.9502 12.032 62.8635 12.0053 62.7915 11.952C62.7222 11.896 62.6875 11.8093 62.6875 11.692C62.6875 11.6307 62.6995 11.576 62.7235 11.528C62.7475 11.48 62.7795 11.44 62.8195 11.408C62.8595 11.376 62.9048 11.352 62.9555 11.336C63.0088 11.3173 63.0635 11.308 63.1195 11.308C63.2288 11.308 63.3195 11.336 63.3915 11.392C63.4635 11.4453 63.4995 11.5307 63.4995 11.648ZM64.6268 11.608C64.8108 11.5493 64.9894 11.476 65.1628 11.388C65.3361 11.2973 65.4908 11.1893 65.6268 11.064C65.7628 10.936 65.8708 10.788 65.9508 10.62C66.0334 10.452 66.0748 10.2587 66.0748 10.04C66.0748 9.93333 66.0641 9.85067 66.0428 9.792C66.0214 9.73333 65.9841 9.704 65.9308 9.704C65.8828 9.704 65.8374 9.72667 65.7948 9.772C65.7548 9.81733 65.7174 9.87467 65.6828 9.944C65.6508 10.0133 65.6201 10.0907 65.5908 10.176C65.5641 10.2613 65.5414 10.344 65.5228 10.424H64.7988L64.9308 9.824C65.0801 9.696 65.2374 9.59733 65.4028 9.528C65.5681 9.456 65.7548 9.42 65.9628 9.42C66.0908 9.42 66.2108 9.43467 66.3228 9.464C66.4374 9.49333 66.5361 9.54 66.6188 9.604C66.7041 9.66533 66.7708 9.744 66.8188 9.84C66.8694 9.93333 66.8948 10.0453 66.8948 10.176C66.8948 10.2747 66.8774 10.372 66.8428 10.468C66.8108 10.564 66.7521 10.664 66.6668 10.768C66.5841 10.8693 66.4708 10.976 66.3268 11.088C66.1854 11.1973 66.0054 11.316 65.7868 11.444H66.6788L66.5988 12H64.5388L64.6268 11.608ZM68.5379 9.42C68.7459 9.42 68.9165 9.44933 69.0499 9.508C69.1832 9.56667 69.2885 9.65733 69.3659 9.78C69.4192 9.86267 69.4605 9.95733 69.4899 10.064C69.5192 10.168 69.5339 10.2867 69.5339 10.42C69.5339 10.532 69.5232 10.6467 69.5019 10.764C69.4805 10.8813 69.4499 10.9947 69.4099 11.104C69.3699 11.2133 69.3219 11.3173 69.2659 11.416C69.2125 11.512 69.1525 11.596 69.0859 11.668C68.9659 11.8013 68.8285 11.896 68.6739 11.952C68.5192 12.0053 68.3312 12.032 68.1099 12.032C67.8965 12.032 67.7232 12.008 67.5899 11.96C67.4592 11.912 67.3552 11.8347 67.2779 11.728C67.2139 11.6507 67.1659 11.5533 67.1339 11.436C67.1045 11.316 67.0899 11.1773 67.0899 11.02C67.0899 10.8787 67.1032 10.7413 67.1299 10.608C67.1565 10.472 67.1952 10.3453 67.2459 10.228C67.2992 10.1107 67.3632 10.004 67.4379 9.908C67.5125 9.812 67.5979 9.73067 67.6939 9.664C67.8059 9.584 67.9299 9.524 68.0659 9.484C68.2045 9.44133 68.3619 9.42 68.5379 9.42ZM68.1019 11.752C68.1552 11.752 68.2059 11.724 68.2539 11.668C68.3045 11.612 68.3512 11.5387 68.3939 11.448C68.4365 11.3547 68.4739 11.2493 68.5059 11.132C68.5405 11.012 68.5699 10.8893 68.5939 10.764C68.6179 10.636 68.6365 10.512 68.6499 10.392C68.6632 10.2693 68.6699 10.1573 68.6699 10.056C68.6699 9.92 68.6579 9.82667 68.6339 9.776C68.6099 9.72267 68.5752 9.696 68.5299 9.696C68.4739 9.696 68.4205 9.724 68.3699 9.78C68.3192 9.83333 68.2725 9.90533 68.2299 9.996C68.1872 10.084 68.1472 10.1867 68.1099 10.304C68.0752 10.4213 68.0445 10.5413 68.0179 10.664C67.9939 10.7867 67.9752 10.908 67.9619 11.028C67.9485 11.148 67.9419 11.2573 67.9419 11.356C67.9419 11.5053 67.9565 11.6093 67.9859 11.668C68.0152 11.724 68.0539 11.752 68.1019 11.752ZM71.2098 9.42C71.4178 9.42 71.5884 9.44933 71.7218 9.508C71.8551 9.56667 71.9604 9.65733 72.0378 9.78C72.0911 9.86267 72.1324 9.95733 72.1618 10.064C72.1911 10.168 72.2058 10.2867 72.2058 10.42C72.2058 10.532 72.1951 10.6467 72.1738 10.764C72.1524 10.8813 72.1218 10.9947 72.0818 11.104C72.0418 11.2133 71.9938 11.3173 71.9378 11.416C71.8844 11.512 71.8244 11.596 71.7578 11.668C71.6378 11.8013 71.5004 11.896 71.3458 11.952C71.1911 12.0053 71.0031 12.032 70.7818 12.032C70.5684 12.032 70.3951 12.008 70.2618 11.96C70.1311 11.912 70.0271 11.8347 69.9498 11.728C69.8858 11.6507 69.8378 11.5533 69.8058 11.436C69.7764 11.316 69.7618 11.1773 69.7618 11.02C69.7618 10.8787 69.7751 10.7413 69.8018 10.608C69.8284 10.472 69.8671 10.3453 69.9178 10.228C69.9711 10.1107 70.0351 10.004 70.1098 9.908C70.1844 9.812 70.2698 9.73067 70.3658 9.664C70.4778 9.584 70.6018 9.524 70.7378 9.484C70.8764 9.44133 71.0338 9.42 71.2098 9.42ZM70.7738 11.752C70.8271 11.752 70.8778 11.724 70.9258 11.668C70.9764 11.612 71.0231 11.5387 71.0658 11.448C71.1084 11.3547 71.1458 11.2493 71.1778 11.132C71.2124 11.012 71.2418 10.8893 71.2658 10.764C71.2898 10.636 71.3084 10.512 71.3218 10.392C71.3351 10.2693 71.3418 10.1573 71.3418 10.056C71.3418 9.92 71.3298 9.82667 71.3058 9.776C71.2818 9.72267 71.2471 9.696 71.2018 9.696C71.1458 9.696 71.0924 9.724 71.0418 9.78C70.9911 9.83333 70.9444 9.90533 70.9018 9.996C70.8591 10.084 70.8191 10.1867 70.7818 10.304C70.7471 10.4213 70.7164 10.5413 70.6898 10.664C70.6658 10.7867 70.6471 10.908 70.6338 11.028C70.6204 11.148 70.6138 11.2573 70.6138 11.356C70.6138 11.5053 70.6284 11.6093 70.6578 11.668C70.6871 11.724 70.7258 11.752 70.7738 11.752ZM74.0376 12H73.1736L73.3056 11.36H72.2616L72.3616 10.892L73.5536 9.46H74.5856L74.2456 11.024H74.6096L74.5376 11.36H74.1736L74.0376 12ZM73.3776 11.024L73.6176 9.912L72.7296 11.024H73.3776Z" fill="white"/>
</svg>
